<svg width="900" height="600" viewBox="0 0 900 600" fill="none" xmlns="http://www.w3.org/2000/svg">
<path d="M0 0H900V600H0V0Z" fill="black"/>
<path d="M0 0H900V300H0V0Z" fill="#CC092F"/>
<path fill-rule="evenodd" clip-rule="evenodd" d="M390.858 205.797H427.502L438.614 171.26L450.024 205.797H486.664L457.231 227.723L468.64 262.858L438.614 241.534L408.883 262.858L420.293 227.723L390.858 205.797Z" fill="#FFCB00"/>
<path fill-rule="evenodd" clip-rule="evenodd" d="M524.801 394.706L495.974 372.176C525.101 348.452 544.026 312.112 544.026 271.571C544.026 209.705 499.882 157.747 441.615 145.434L446.119 124.409C454.229 126.212 463.743 129.626 471.551 132.325L479.061 119.717C487.161 123.617 496.179 127.52 503.682 132.325L497.979 145.843C505.489 150.651 514.554 158.094 519.595 163.955L530.872 155.146C536.88 161.75 544.09 168.653 549.195 175.867L538.984 186.379C545.578 196.059 548.127 200.514 552.988 211.666L567.315 208.306C570.021 216.714 574.129 227.008 575.635 235.714L562.069 241.046C563.689 247.812 565.787 259.63 565.652 269.571C565.641 270.169 565.596 270.847 565.596 271.449L579.763 273.47C579.163 282.182 578.866 292.095 577.059 300.803H562.345C560.245 309.808 557.535 320.823 554.235 329.228L566.543 336.441C562.642 344.246 558.743 353.558 553.635 361.067L540.121 355.364C535.011 362.869 529.311 370.074 523.003 376.685L531.709 388.095C529.311 390.195 527.207 392.3 524.801 394.705V394.706ZM461.439 392.001L483.211 405.121C481.181 406.978 475.099 410.127 473.487 410.765L477.047 424.431C468.64 427.139 459.627 431.039 450.323 432.843L444.918 419.33C436.208 421.13 427.502 422.33 418.491 422.33L416.684 436.444C408.278 435.846 398.067 436.444 388.756 434.342V420.232C380.345 418.726 372.237 416.626 364.432 413.92L357.522 426.242C350.315 423.232 340.706 419.627 332.894 414.826L338.002 401.312C331.692 398.005 325.987 393.803 320.582 389.592L334.097 372.474C356.323 390.196 384.25 400.702 414.884 400.702C431.105 400.702 447.016 398.005 461.439 392.002" fill="#FFCB00"/>
<path fill-rule="evenodd" clip-rule="evenodd" d="M552.192 426.811L408.462 317.43L407.152 319.296L550.512 428.869L542.003 439.516L402.25 349.876C364.411 326.15 365.913 307.532 373.722 287.41L380.33 271.193C383.935 292.216 405.553 308.137 428.078 325.851L554.992 423.348L552.192 426.811ZM588.276 459.411C587.982 459.411 587.692 459.353 587.421 459.24C587.15 459.128 586.903 458.963 586.696 458.755C586.489 458.547 586.325 458.3 586.213 458.029C586.102 457.757 586.045 457.467 586.046 457.173C586.046 456.88 586.103 456.59 586.215 456.319C586.327 456.048 586.491 455.802 586.698 455.595C586.905 455.388 587.151 455.223 587.422 455.111C587.693 454.999 587.983 454.941 588.276 454.941C589.513 454.941 590.516 455.941 590.516 457.173C590.516 457.467 590.458 457.758 590.346 458.03C590.233 458.302 590.068 458.549 589.86 458.757C589.652 458.965 589.405 459.13 589.133 459.242C588.861 459.355 588.57 459.412 588.276 459.412V459.411ZM579.686 453.104C579.093 453.103 578.525 452.868 578.106 452.449C577.686 452.03 577.45 451.462 577.449 450.869C577.449 450.427 577.58 449.994 577.825 449.627C578.071 449.259 578.42 448.972 578.828 448.803C579.237 448.633 579.686 448.589 580.12 448.675C580.554 448.761 580.952 448.974 581.265 449.286C581.578 449.599 581.791 449.997 581.878 450.431C581.964 450.864 581.92 451.314 581.751 451.723C581.582 452.131 581.296 452.481 580.928 452.727C580.56 452.972 580.128 453.104 579.686 453.104ZM570.896 446.098C569.664 446.098 568.66 445.098 568.66 443.867C568.677 443.286 568.92 442.734 569.338 442.329C569.755 441.924 570.313 441.698 570.895 441.698C571.476 441.698 572.035 441.924 572.452 442.329C572.869 442.734 573.113 443.286 573.13 443.867C573.13 445.098 572.13 446.098 570.896 446.098ZM600.45 458.498L557.385 425.133L544.871 441.26L582.281 467.495C585.286 469.595 585.581 479.213 596.688 480.717C601.201 481.313 604.196 478.007 604.196 478.007C609.036 472.115 607.717 464.004 600.45 458.497" fill="#FFCB00"/>
</svg>
