<svg width="515" height="500" viewBox="0 0 515 500" fill="none" xmlns="http://www.w3.org/2000/svg">
<path d="M514.605 500H0V0H514.605V500Z" fill="#34607D"/>
<path d="M256.423 272.548C230.341 272.548 209.188 251.83 209.188 226.301C209.188 200.773 230.341 180.055 256.423 180.055C282.494 180.055 303.646 200.773 303.646 226.301C303.646 251.83 282.494 272.548 256.423 272.548ZM410.265 198.102C417.085 189.426 414.935 177.569 405.564 171.792L393.218 164.202L365.833 149.076C360.859 146.34 354.616 145.46 348.557 146.242L348.969 120.225L347.873 102.808C347.199 91.8084 337.753 84.3377 326.894 86.2597L312.626 88.7463L282.114 95.598C276.142 96.9444 270.473 100.886 266.434 105.99L245.944 86.5094L232.404 75.4989C223.847 68.5495 211.968 70.4389 206.007 79.7012L198.178 91.8952L182.52 118.955C179.925 123.428 178.871 128.944 179.186 134.45L148.24 135.546L130.899 137.512C119.953 138.739 113.004 148.555 115.447 159.315L118.672 173.421L127.055 203.575C128.369 208.298 131.376 212.75 135.285 216.301L115.719 236.508L104.621 249.951C97.5849 258.453 99.3982 270.365 108.617 276.381L120.746 284.329L147.675 300.204C152.626 303.125 158.946 304.167 165.081 303.483L165.309 330.955L166.808 348.329C167.774 359.318 177.405 366.539 188.21 364.367L202.391 361.544L232.762 353.964C238.322 352.564 243.577 348.872 247.464 344.105L269.214 364.779L282.776 375.757C291.365 382.707 303.223 380.817 309.162 371.533L317.002 359.361L332.627 332.28C335.592 327.144 336.547 320.542 335.689 314.255L366.799 313.614L384.14 311.92C395.118 310.824 402.23 301.116 399.917 290.345L396.909 276.163L388.994 245.912C387.701 240.993 384.585 236.324 380.546 232.664L399.559 211.849L410.265 198.102Z" fill="#F19234"/>
<path d="M229.288 170.815C236.28 166.743 244.587 164.365 253.502 164.365C254.436 164.365 255.381 164.408 256.314 164.452C256.141 161.335 256.01 158.154 255.978 154.864L209.254 109.486L198.602 127.164C195.42 132.419 196.538 140.205 201.088 144.559C201.088 144.559 215.943 158.74 217.376 160.13C218.429 161.107 225.292 167.242 229.288 170.815Z" fill="#DA3941"/>
<path d="M214.976 100.365L213.489 102.83L256.217 144.961C256.412 138.207 256.879 131.811 257.606 126.013L228.951 98.6926C224.434 94.371 218.136 95.1202 214.976 100.365Z" fill="#DA3941"/>
<path d="M278.639 168.143C286.468 170.196 294.015 174.387 300.313 180.718C300.975 181.38 301.616 182.075 302.213 182.748C304.287 180.446 306.491 178.101 308.772 175.766L307.925 110.659L287.891 115.567C281.94 117.033 277.195 123.341 277.325 129.607C277.325 129.607 277.738 150.151 277.814 152.16C277.857 153.604 278.313 162.768 278.639 168.143Z" fill="#DA3941"/>
<path d="M318.446 108.248L315.623 108.943L315.971 168.936C320.879 164.289 325.732 160.141 330.336 156.557L329.478 116.978C329.348 110.713 324.375 106.804 318.446 108.248Z" fill="#DA3941"/>
<path d="M314.168 198.439C318.446 205.301 321.031 213.532 321.27 222.458C321.291 223.413 321.27 224.347 321.248 225.27C324.343 225.02 327.546 224.814 330.803 224.662L374.943 176.808L356.994 166.623C351.673 163.594 343.888 164.908 339.696 169.533C339.696 169.533 325.885 184.746 324.549 186.255C323.583 187.341 317.621 194.323 314.168 198.439Z" fill="#DA3941"/>
<path d="M384.216 182.281L381.719 180.848L340.739 224.662C347.482 224.662 353.878 224.998 359.676 225.552L386.257 196.213C390.449 191.576 389.558 185.3 384.216 182.281Z" fill="#DA3941"/>
<path d="M317.393 245.705C315.297 253.502 311.095 261.038 304.732 267.314C304.07 267.976 303.375 268.628 302.702 269.236C305.004 271.321 307.338 273.503 309.705 275.783L374.769 275.121L369.916 255.076C368.471 249.115 362.152 244.348 355.908 244.468C355.908 244.468 335.353 244.837 333.355 244.891C331.922 244.935 322.746 245.391 317.393 245.705Z" fill="#DA3941"/>
<path d="M377.169 285.621L376.485 282.831L316.481 283.015C321.118 287.934 325.266 292.799 328.816 297.414L368.417 296.664C374.661 296.545 378.603 291.572 377.169 285.621Z" fill="#DA3941"/>
<path d="M285.469 281.452C278.585 285.686 270.311 288.206 261.418 288.401C260.452 288.401 259.518 288.401 258.595 288.358C258.823 291.463 259.029 294.655 259.138 297.913L306.719 342.346L317.035 324.473C320.097 319.163 318.827 311.388 314.212 307.154C314.212 307.154 299.086 293.233 297.598 291.908C296.523 290.931 289.574 284.926 285.469 281.452Z" fill="#DA3941"/>
<path d="M301.181 351.619L302.647 349.111L259.094 307.838C259.029 314.602 258.681 320.987 258.073 326.775L287.25 353.552C291.865 357.787 298.13 356.918 301.181 351.619Z" fill="#DA3941"/>
<path d="M234.923 284.535C227.17 282.288 219.71 277.933 213.554 271.483C212.891 270.81 212.272 270.104 211.675 269.41C209.558 271.679 207.332 273.981 204.975 276.283L204.487 341.379L224.607 336.884C230.601 335.548 235.455 329.327 235.455 323.072C235.455 323.072 235.444 302.539 235.444 300.508C235.444 299.075 235.129 289.889 234.923 284.535Z" fill="#DA3941"/>
<path d="M193.921 343.54L196.745 342.943L197.646 282.939C192.64 287.489 187.7 291.539 183.02 295.036L183.063 334.615C183.063 340.869 187.96 344.908 193.921 343.54Z" fill="#DA3941"/>
<path d="M199.253 252.85C195.246 245.814 192.977 237.496 193.085 228.582C193.085 227.626 193.129 226.671 193.183 225.769C190.099 225.91 186.885 225.976 183.617 225.976L137.707 272.157L155.222 283.015C160.434 286.262 168.263 285.219 172.65 280.735C172.65 280.735 187.037 266.054 188.405 264.643C189.415 263.589 195.637 256.814 199.253 252.85Z" fill="#DA3941"/>
<path d="M128.608 266.337L131.062 267.857L173.714 225.639C166.938 225.357 160.575 224.814 154.798 224.043L127.142 252.329C122.733 256.792 123.417 263.101 128.608 266.337Z" fill="#DA3941"/>
<path d="M196.169 207.158C198.352 199.394 202.652 191.891 209.058 185.68C209.72 185.028 210.415 184.388 211.143 183.78C208.873 181.684 206.55 179.48 204.237 177.156L139.119 177.069L143.766 197.201C145.123 203.151 151.378 207.983 157.654 207.961C157.654 207.961 178.177 207.82 180.196 207.766C181.63 207.744 190.805 207.397 196.169 207.158Z" fill="#DA3941"/>
<path d="M136.849 166.536L137.512 169.338L197.515 169.859C192.933 164.886 188.829 159.967 185.321 155.33L145.742 155.602C139.488 155.656 135.503 160.597 136.849 166.536Z" fill="#DA3941"/>
<path fill-rule="evenodd" clip-rule="evenodd" d="M301.257 431.179V441.885H292.191V431.179H265.859C264.002 431.233 263.383 432.287 263.437 434.502V456.631C263.524 458.151 264.154 458.651 265.859 458.553H301.518V467.826H264.881C258.627 467.338 254.957 463.95 255.076 457.185V434.502C254.957 427.748 258.627 423.003 264.881 422.525H265.001L265.479 422.503V422.525L301.236 422.449L301.257 431.179ZM353.53 431.179V467.826H344.452V431.179H318.099C316.253 431.233 315.656 432.287 315.667 434.502V456.631C315.829 458.151 316.416 458.651 318.099 458.553H340.294V467.826H317.132C310.889 467.338 307.175 463.95 307.371 457.185V434.502C307.175 427.748 310.889 423.003 317.132 422.525H317.263L317.73 422.503V422.525H353.563L353.53 431.179ZM474.787 430.832V467.501H465.72V430.832H439.399C437.52 430.897 436.901 431.961 436.956 434.133V456.295C437.064 457.804 437.64 458.303 439.399 458.206H461.572V467.501H438.367C432.124 466.99 428.475 463.592 428.595 456.838V434.133C428.475 427.411 432.124 422.666 438.367 422.21V422.199H438.519L439.008 422.134V422.199H474.808L474.787 430.832ZM384.954 422.286V431.798C384.998 433.676 386.019 434.263 388.266 434.241H410.396C411.916 434.122 412.415 433.557 412.34 431.798V422.286H421.591V432.808C421.081 438.997 417.682 442.732 410.939 442.591H388.266C381.491 442.732 376.811 438.997 376.311 432.808H376.268V432.656L376.224 432.189L376.268 432.211V422.286H384.954ZM384.954 467.609V455.133C384.998 453.265 386.019 452.657 388.266 452.7H410.396C411.916 452.809 412.415 453.385 412.34 455.133V467.609H421.591V454.166C421.081 447.901 417.682 444.209 410.939 444.35H388.266C381.491 444.209 376.811 447.901 376.311 454.166H376.268V454.286L376.224 454.731H376.268V467.609H384.954ZM234.358 422.09H239.777V467.511H234.358V422.09ZM154.103 467.663C147.371 467.805 143.332 464.949 142.832 458.727H142.811V458.597L142.789 458.151H142.811V422.09H148.24V458.727C148.609 461.376 151.258 462.582 154.103 462.245H181.651V467.663H154.103ZM199.687 467.663C192.89 467.805 188.894 464.949 188.384 458.727V458.597L188.34 458.151H188.384V422.09H193.802V435.533H210.502V440.984H193.802V458.727C194.182 461.376 196.831 462.582 199.687 462.245H227.203V467.663H199.687ZM108.346 467.663C101.603 467.805 97.585 464.949 97.0964 458.727H97.0747V458.597L97.0313 458.151H97.0747V422.09H102.504V458.727C102.873 461.376 105.512 462.582 108.346 462.245H124.004C126.816 462.582 129.487 461.376 129.878 458.727V422.09H135.286V458.727H135.264C134.786 464.949 130.779 467.805 124.004 467.663H108.346ZM51.1108 422.09C44.3677 421.938 40.3392 424.805 39.8506 431.038V431.157L39.7963 431.635H39.8506V467.663H45.2581V431.038C45.6055 428.367 48.2876 427.161 51.1108 427.509H55.6279C58.4511 427.161 61.1332 428.367 61.4806 431.038V467.663H66.9207V431.635H66.9424L66.9207 431.266V431.038C67.2899 428.367 69.9502 427.161 72.7734 427.509H77.3231C80.1463 427.161 82.8067 428.367 83.1867 431.038V467.663H88.5942V431.635H88.6159L88.5942 431.157V431.038C88.1056 424.805 84.0445 421.938 77.3231 422.09H72.7734C69.049 421.993 66.1498 422.851 64.1952 424.675C62.2624 422.851 59.3849 421.993 55.6279 422.09H51.1108ZM360.262 415.89H369.34V409.212H360.262V415.89ZM234.358 415.89H239.777V409.212H234.358V415.89ZM360.262 422.286H369.34V467.511H360.262V422.286Z" fill="white"/>
</svg>
