<svg width="87" height="87" viewBox="0 0 87 87" fill="none" xmlns="http://www.w3.org/2000/svg">
<path fill-rule="evenodd" clip-rule="evenodd" d="M86.7905 0.00017106H14.947C6.68485 0.00017106 0 7.17323 0 16.0363V86.4539H71.8435C80.1056 86.4539 86.7905 79.2808 86.7905 70.4177" fill="#FFCB05"/>
<path fill-rule="evenodd" clip-rule="evenodd" d="M40.2918 15.8397C28.3152 15.8397 19.8921 23.2757 19.4972 32.3569V32.4227C19.1024 41.2407 25.6172 48.4135 35.0274 48.9399C33.9745 47.2948 33.2506 45.2548 33.3164 43.0833C33.5796 37.424 38.3835 32.8176 43.9769 32.8176H57.5987C64.2451 32.7517 69.8385 27.2899 70.1676 20.6435L70.365 15.8397H40.2918Z" fill="black"/>
<path fill-rule="evenodd" clip-rule="evenodd" d="M51.9393 37.2267C52.9922 38.8718 53.8477 40.9118 53.7161 43.0834C53.4528 48.7427 48.7148 53.2833 43.0555 53.3491H29.5654C22.8532 53.3491 17.1939 58.8109 16.8649 65.5231L16.6675 70.3269L46.7406 70.2611C58.7173 70.2611 67.1404 62.8251 67.5352 53.7439C67.9301 44.9259 61.3495 37.7531 51.9393 37.2267" fill="#ED1B23"/>
</svg>
