<svg width="380" height="103" viewBox="0 0 380 103" fill="none" xmlns="http://www.w3.org/2000/svg">
<path fill-rule="evenodd" clip-rule="evenodd" d="M86.7905 0.00017106H14.947C6.68485 0.00017106 0 7.17323 0 16.0363V86.4539H71.8435C80.1056 86.4539 86.7905 79.2808 86.7905 70.4177" fill="#FFCB05"/>
<path fill-rule="evenodd" clip-rule="evenodd" d="M40.2918 15.8397C28.3152 15.8397 19.8921 23.2757 19.4972 32.3569V32.4227C19.1024 41.2407 25.6172 48.4135 35.0274 48.9399C33.9745 47.2948 33.2506 45.2548 33.3164 43.0833C33.5796 37.424 38.3835 32.8176 43.9769 32.8176H57.5987C64.2451 32.7517 69.8385 27.2899 70.1676 20.6435L70.365 15.8397H40.2918Z" fill="black"/>
<path fill-rule="evenodd" clip-rule="evenodd" d="M51.9393 37.2267C52.9922 38.8718 53.8477 40.9118 53.7161 43.0834C53.4528 48.7427 48.7148 53.2833 43.0555 53.3491H29.5654C22.8532 53.3491 17.1939 58.8109 16.8649 65.5231L16.6675 70.3269L46.7406 70.2611C58.7173 70.2611 67.1404 62.8251 67.5352 53.7439C67.9301 44.9259 61.3495 37.7531 51.9393 37.2267" fill="#ED1B23"/>
<path d="M374.583 85.9125C366.731 85.9125 363.431 80.4185 363.431 75.3304V36.1282L372.97 33.6929V74.4075C372.97 76.6738 373.917 77.8527 376.342 77.8527H380V85.9125H374.583Z" fill="black"/>
<path d="M280.258 51.3397C277.909 48.8464 274.024 46.6431 268.371 46.6431H252.203L252.232 85.8113H261.765L261.77 55.2199H268.356V55.2343C268.361 55.2343 268.361 55.2343 268.371 55.2343C270.279 55.2343 271.739 55.8141 272.845 56.9158C274.72 58.7858 275.015 61.8591 275.039 65.5314H275.034V85.821H284.568V65.6038C284.519 59.0468 283.601 54.8381 280.258 51.3397" fill="black"/>
<path d="M207.275 51.3397C204.927 48.8464 201.037 46.6431 195.398 46.6431H179.22L179.254 85.8113H188.788L188.793 55.2199H195.374V55.2343C195.379 55.2343 195.388 55.2343 195.398 55.2343C197.297 55.2343 198.761 55.8141 199.867 56.9158C201.737 58.7858 202.032 61.8591 202.061 65.5314V85.821H211.59V65.6038H211.595C211.542 59.0468 210.624 54.8381 207.275 51.3397" fill="black"/>
<path d="M321.209 47.6043V47.1501H302.644V47.1695C298.919 47.1695 295.623 48.4113 293.507 50.5471C289.912 54.1421 289.622 58.979 289.622 65.652C289.622 72.325 289.912 77.2391 293.507 80.8293C295.628 82.9602 298.856 84.2069 302.596 84.2069C306.336 84.2069 309.201 83.1776 311.694 80.3896C311.694 80.3896 311.83 83.9509 311.83 84.6129C311.83 89.6043 308.534 93.9047 303.755 95.9873L303.741 102.308C314.009 102.308 321.223 93.5956 321.223 84.4244V47.6043H321.209ZM305.389 75.6252C299.74 75.6252 299.15 70.7111 299.15 65.652C299.15 60.5784 299.74 55.7511 305.389 55.7511V55.7222H311.694C311.694 55.7222 311.694 65.6182 311.694 65.652C311.694 70.7111 311.028 75.6252 305.389 75.6252" fill="black"/>
<path d="M232.343 46.6961V46.6333H220.505V54.7946H231.029C235.305 55.0555 237.093 56.8965 237.093 60.7766V62.6901H228.033C219.118 62.6901 214.929 67.7058 214.929 73.8182C214.929 77.2055 216.021 80.2882 218.084 82.4288C220.374 84.7192 223.54 85.821 227.883 85.821C232.305 85.821 246.641 85.7968 246.641 85.7968L246.665 60.1919C246.665 51.7891 241.771 47.247 232.343 46.6961V46.6961ZM237.093 79.5732C237.093 79.5732 229.604 79.5828 229.657 79.5828C225.893 79.5828 224.129 77.8095 224.129 75.1568C224.129 75.1229 224.139 75.1035 224.139 75.06V73.4076C224.139 73.3737 224.129 73.3495 224.129 73.3108C224.129 70.5904 226.047 68.9669 229.507 68.9669H237.093V79.5732" fill="black"/>
<path d="M170.209 51.5086C167.865 49.0153 163.971 46.8167 158.322 46.8167C152.683 46.8167 148.866 49.0153 146.517 51.5086C143.077 55.1036 142.188 59.438 142.188 66.3236C142.188 73.2913 143.077 77.6207 146.517 81.2206C148.866 83.7139 152.683 85.9125 158.322 85.9125C163.971 85.9125 167.865 83.7139 170.209 81.2206C173.649 77.6207 174.538 73.2913 174.538 66.3236C174.538 59.438 173.649 55.1036 170.209 51.5086ZM162.801 75.6396C161.705 76.7461 160.236 77.3308 158.322 77.3308C156.423 77.3308 155.031 76.7461 153.93 75.6396C151.944 73.6681 151.721 70.2907 151.721 66.3236C151.721 62.3662 151.944 59.0706 153.93 57.0798C155.031 55.9878 156.423 55.3983 158.322 55.3983C160.236 55.3983 161.705 55.9878 162.801 57.0798C164.782 59.0706 165 62.3662 165 66.3236C165 70.2907 164.782 73.6681 162.801 75.6396Z" fill="black"/>
<path d="M354.468 51.5086C352.124 49.0153 348.235 46.8167 342.581 46.8167C336.937 46.8167 333.115 49.0153 330.772 51.5086C327.326 55.1036 326.452 59.438 326.452 66.3236C326.452 73.2913 327.326 77.6207 330.772 81.2206C333.115 83.7139 336.937 85.9125 342.581 85.9125C348.235 85.9125 352.124 83.7139 354.468 81.2206C357.918 77.6207 358.793 73.2913 358.793 66.3236C358.793 59.438 357.918 55.1036 354.468 51.5086ZM347.061 75.6396C345.954 76.7461 344.5 77.3308 342.581 77.3308C340.673 77.3308 339.291 76.7461 338.179 75.6396C336.198 73.6681 335.976 70.2907 335.976 66.3236C335.976 62.3662 336.198 59.0706 338.179 57.0798C339.291 55.9878 340.673 55.3983 342.581 55.3983C344.5 55.3983 345.954 55.9878 347.061 57.0798C349.037 59.0706 349.264 62.3662 349.264 66.3236C349.264 70.2907 349.037 73.6681 347.061 75.6396Z" fill="black"/>
<path d="M134.799 58.9983C132.601 56.9447 129.596 55.6207 124.826 54.9636L118.661 54.0841C116.535 53.7845 114.848 52.9728 113.824 52.0208C112.722 50.9965 112.282 49.6049 112.282 48.2858C112.282 44.6908 114.925 41.6853 120.352 41.6853C120.473 41.6853 137.583 41.6755 137.583 41.6755V32.8088C137.583 32.8088 120.666 32.8088 120.646 32.8088C109.344 32.8088 102.454 39.3368 102.454 48.653C102.454 53.0549 103.701 56.4277 106.199 58.9161C108.547 61.1968 111.842 62.5837 116.317 63.2505L122.623 64.1348C125.049 64.4924 126.218 65.0094 127.242 65.9661C128.344 66.9905 128.856 68.5319 128.856 70.3633C128.856 74.5285 125.652 76.7946 119.685 76.8091V76.7802H103.28V85.8982C103.28 85.8982 119.178 85.9126 119.472 85.9126C130.402 85.9126 138.834 80.1915 138.834 70.0781C138.834 65.449 137.583 61.6366 134.799 58.9983" fill="black"/>
</svg>
