<svg width="500" height="500" viewBox="0 0 500 500" fill="none" xmlns="http://www.w3.org/2000/svg">
<rect width="500" height="500" rx="90" fill="url(#paint0_linear_3_23)"/>
<path d="M244.5 355V391.5H256.5V357.5C256.5 353.634 259.634 350.5 263.5 350.5H292.5V343H268.5H256.5C249.873 343 244.5 348.373 244.5 355Z" fill="#BA0E0D"/>
<path d="M345.5 371.5H314V364.5H342.5C346.366 364.5 349.5 361.366 349.5 357.5C349.5 353.634 346.366 350.5 342.5 350.5H315.5C311.634 350.5 308.5 353.634 308.5 357.5V376.5C308.5 380.366 311.634 383.5 315.5 383.5H372C374.761 383.5 377 381.261 377 378.5V356C377 348.82 382.82 343 390 343H417V350.5H395C391.686 350.5 389 353.186 389 356.5V378.5C389 385.68 383.18 391.5 376 391.5H310.5C303.32 391.5 297.5 385.68 297.5 378.5V356C297.5 348.82 303.32 343 310.5 343H345.5C352.68 343 358.5 348.82 358.5 356V358.5C358.5 365.68 352.68 371.5 345.5 371.5Z" fill="#BA0E0D"/>
<path d="M465.5 343H438.5C431.32 343 425.5 348.82 425.5 356V378.5C425.5 381.261 423.261 383.5 420.5 383.5H397.5V391.5H424C431.18 391.5 437 385.68 437 378.5V357.5C437 354.186 439.686 351.5 443 351.5H465.5V343Z" fill="#BA0E0D"/>
<path d="M93.5 383V391.5H47C39.8203 391.5 34 385.68 34 378.5V356C34 348.82 39.8203 343 47 343H82C89.1797 343 95 348.82 95 356V358.5C95 365.68 89.1797 371.5 82 371.5H50V364.5H79.5C82.8137 364.5 85.5 361.814 85.5 358.5V356.5C85.5 353.186 82.8137 350.5 79.5 350.5H51.5C48.1863 350.5 45.5 353.186 45.5 356.5V377C45.5 380.314 48.1863 383 51.5 383H93.5Z" fill="#BA0E0D"/>
<path d="M113 343H104.5V355.5C104.5 360.471 108.529 364.5 113.5 364.5H156C160.971 364.5 165 360.471 165 355.5V343H156V352C156 354.761 153.761 357 151 357H118C115.239 357 113 354.761 113 352V343Z" fill="#BA0E0D"/>
<path d="M104.5 375.5V391.5H113V380.5C113 377.739 115.239 375.5 118 375.5H151C153.761 375.5 156 377.739 156 380.5V391.5H165V375.5C165 372.186 162.314 369.5 159 369.5H110.5C107.186 369.5 104.5 372.186 104.5 375.5Z" fill="#BA0E0D"/>
<path d="M178.5 350.5V343H224C231.18 343 237 348.82 237 356V359.5C237 366.127 231.627 371.5 225 371.5H196C192.686 371.5 190 374.186 190 377.5V391.5H178.5V376.5C178.5 369.873 183.873 364.5 190.5 364.5H221C224.314 364.5 227 361.814 227 358.5V356.5C227 353.186 224.314 350.5 221 350.5H178.5Z" fill="#BA0E0D"/>
<path d="M374.428 161.421C379.971 154.366 378.223 144.66 370.583 139.957L360.546 133.752L338.225 121.444C334.18 119.193 329.086 118.492 324.143 119.143L324.492 97.9283L323.593 83.7188C323.044 74.7628 315.354 68.6587 306.515 70.2097L294.88 72.2111L270.012 77.8148C265.169 78.9156 260.524 82.1177 257.229 86.3205L240.55 70.4099L229.514 61.4038C222.523 55.75 212.886 57.3011 207.992 64.8561L201.6 74.8128L188.966 96.8276C186.869 100.48 185.97 104.983 186.27 109.486L161.052 110.387L146.92 111.988C137.982 112.988 132.339 120.994 134.337 129.8L136.933 141.307L143.775 165.874C144.823 169.726 147.27 173.379 150.466 176.281L134.536 192.792L125.498 203.749C119.755 210.704 121.253 220.41 128.744 225.314L138.631 231.818L160.553 244.777C164.598 247.178 169.741 248.029 174.735 247.479L174.934 269.894L176.133 284.053C176.932 293.009 184.772 298.913 193.561 297.162L205.096 294.86L229.814 288.656C234.358 287.505 238.603 284.503 241.799 280.601L259.526 297.462L270.562 306.418C277.553 312.072 287.19 310.521 292.034 302.966L298.426 293.009L311.159 270.894C313.556 266.692 314.355 261.338 313.656 256.184L338.974 255.684L353.105 254.283C362.044 253.383 367.837 245.477 365.939 236.671L363.492 225.114L357.05 200.447C356.002 196.444 353.455 192.642 350.159 189.64L365.639 172.628L374.428 161.421ZM249.139 222.162C227.916 222.162 210.689 205.25 210.689 184.436C210.689 163.622 227.916 146.711 249.139 146.711C270.362 146.711 287.59 163.622 287.59 184.436C287.59 205.25 270.362 222.162 249.139 222.162Z" fill="white"/>
<path d="M227.017 139.156C232.71 135.854 239.451 133.903 246.742 133.903C247.491 133.903 248.29 133.953 249.039 133.953C248.889 131.401 248.789 128.799 248.789 126.147L210.738 89.1225L202.049 103.532C199.452 107.835 200.351 114.189 204.047 117.742C204.047 117.742 216.131 129.299 217.33 130.45C218.178 131.251 223.771 136.254 227.017 139.156Z" fill="#BA0E0D"/>
<path d="M215.383 81.6673L214.184 83.6686L248.99 118.042C249.139 112.538 249.539 107.334 250.138 102.581L226.768 80.3164C223.073 76.764 217.93 77.3644 215.383 81.6673Z" fill="#BA0E0D"/>
<path d="M267.216 136.954C273.608 138.656 279.75 142.058 284.844 147.211C285.393 147.762 285.892 148.312 286.392 148.862C288.089 146.961 289.887 145.06 291.735 143.159L291.036 90.0229L274.707 94.0256C269.863 95.2264 266.018 100.38 266.118 105.483C266.118 105.483 266.467 122.245 266.517 123.896C266.567 125.096 266.967 132.601 267.216 136.954Z" fill="#BA0E0D"/>
<path d="M299.625 88.1217L297.328 88.672L297.627 137.605C301.622 133.802 305.567 130.4 309.312 127.498L308.613 95.1764C308.513 90.123 304.468 86.9209 299.625 88.1217Z" fill="#BA0E0D"/>
<path d="M296.179 161.721C299.674 167.325 301.772 174.029 301.971 181.334C301.971 182.135 301.971 182.885 301.971 183.636C304.518 183.436 307.115 183.286 309.761 183.135L345.715 144.059L331.084 135.754C326.739 133.302 320.398 134.353 317.002 138.155C317.002 138.155 305.766 150.564 304.668 151.814C303.819 152.665 298.975 158.319 296.179 161.721Z" fill="#BA0E0D"/>
<path d="M353.206 148.512L351.158 147.361L317.801 183.135C323.294 183.135 328.488 183.386 333.231 183.836L354.904 159.87C358.299 156.117 357.55 150.964 353.206 148.512Z" fill="#BA0E0D"/>
<path d="M298.776 200.247C297.078 206.601 293.632 212.755 288.489 217.859C287.94 218.409 287.39 218.909 286.841 219.41C288.739 221.111 290.586 222.912 292.534 224.763L345.516 224.213L341.571 207.852C340.372 202.999 335.229 199.096 330.185 199.196C330.185 199.196 313.457 199.496 311.809 199.546C310.61 199.646 303.12 199.997 298.776 200.247Z" fill="#BA0E0D"/>
<path d="M347.463 232.869L346.913 230.567L298.026 230.717C301.821 234.72 305.167 238.723 308.063 242.475L340.322 241.875C345.415 241.775 348.611 237.672 347.463 232.869Z" fill="#BA0E0D"/>
<path d="M272.759 229.416C267.166 232.869 260.425 234.92 253.184 235.07C252.385 235.07 251.636 235.07 250.887 235.02C251.087 237.572 251.237 240.174 251.337 242.825L290.087 279.1L298.476 264.49C300.973 260.137 299.924 253.833 296.179 250.38C296.179 250.38 283.845 239.023 282.646 237.922C281.797 237.172 276.105 232.268 272.759 229.416Z" fill="#BA0E0D"/>
<path d="M285.592 286.705L286.791 284.654L251.336 250.981C251.286 256.485 250.987 261.688 250.487 266.441L274.257 288.306C278.002 291.708 283.096 291.008 285.592 286.705Z" fill="#BA0E0D"/>
<path d="M231.612 231.968C225.32 230.117 219.228 226.565 214.184 221.311C213.635 220.761 213.136 220.16 212.636 219.61C210.888 221.461 209.091 223.312 207.193 225.214L206.794 278.349L223.173 274.697C228.066 273.596 232.011 268.543 232.011 263.439C232.011 263.439 232.011 246.678 232.011 245.027C232.061 243.826 231.762 236.321 231.612 231.968Z" fill="#BA0E0D"/>
<path d="M198.205 280.1L200.502 279.6L201.251 230.617C197.156 234.32 193.161 237.622 189.316 240.474L189.366 272.796C189.366 277.949 193.361 281.201 198.205 280.1Z" fill="#BA0E0D"/>
<path d="M202.549 206.101C199.303 200.347 197.455 193.592 197.555 186.288C197.555 185.487 197.605 184.737 197.655 183.986C195.158 184.086 192.512 184.136 189.865 184.136L152.463 221.861L166.745 230.717C170.989 233.369 177.381 232.519 180.927 228.866C180.927 228.866 192.662 216.908 193.76 215.757C194.559 214.857 199.603 209.353 202.549 206.101Z" fill="#BA0E0D"/>
<path d="M145.023 217.108L147.021 218.359L181.776 183.886C176.233 183.636 171.09 183.236 166.346 182.585L143.825 205.651C140.23 209.303 140.829 214.456 145.023 217.108Z" fill="#BA0E0D"/>
<path d="M200.052 168.826C201.85 162.472 205.345 156.368 210.538 151.314C211.088 150.764 211.637 150.263 212.236 149.763C210.389 148.062 208.491 146.261 206.593 144.359L153.562 144.309L157.357 160.72C158.455 165.574 163.549 169.526 168.692 169.526C168.692 169.526 185.421 169.426 187.069 169.376C188.217 169.276 195.707 169.026 200.052 168.826Z" fill="#BA0E0D"/>
<path d="M151.764 135.654L152.314 137.955L201.201 138.355C197.456 134.303 194.11 130.3 191.264 126.497L159.005 126.748C153.912 126.798 150.666 130.8 151.764 135.654Z" fill="#BA0E0D"/>
<defs>
<linearGradient id="paint0_linear_3_23" x1="152" y1="401" x2="394" y2="104" gradientUnits="userSpaceOnUse">
<stop stop-color="#F28D0B"/>
<stop offset="1" stop-color="#E6640B"/>
</linearGradient>
</defs>
</svg>
