<svg width="210" height="38" viewBox="0 0 210 38" fill="none" xmlns="http://www.w3.org/2000/svg">
<path d="M113.3 33.7H105.9V4.49999H113.3V33.7ZM68.7 15.7V26.7H57.7C55.1 26.8 52.8 24.8 52.7 22.2V4.49999H45.2999V21.8C45.4999 28.5 51 33.8 57.7 33.7H75.9999V15.7H68.7V15.7ZM87.0999 4.49999H68.7999V11.5H87.0999C89.6999 11.4 91.9999 13.4 92.0999 16V33.7H99.4999V16.4C99.2999 9.69999 93.7999 4.39999 87.0999 4.49999ZM150.5 4.49999H119.6V11.5H131.4V33.7H138.8V11.5H150.6L150.5 4.49999ZM168.7 15.6C166.8 15.4 165.1 16.9 164.9 18.8C164.7 20.7 166.2 22.4 168.1 22.6C168.3 22.6 168.5 22.6 168.7 22.6H184.2V15.6H168.7ZM169.1 11.5H184.2V4.49999H168.7C160.2 4.49999 153.4 11.1 153.4 19.1C153.4 27.1 160.2 33.7 168.7 33.7H184.2V26.7H169.1C164.5 26.7 160.8 23.3 160.8 19.1C160.8 14.9 164.5 11.5 169.1 11.5ZM202.3 26.7C200.3 26.8 198.6 25.3 198.4 23.3V4.49999H191V23C191.1 29.1 196.2 33.9 202.2 33.8H209.1V26.8H202.3V26.7Z" fill="#5C0F8B"/>
<path d="M37.2 19.1C37.2 29.1 29.1 37.2 19.1 37.2C9.09998 37.2 1 29.1 1 19.1C1 9.1 9.09998 1 19.1 1C29.1 1 37.2 9.1 37.2 19.1Z" fill="white"/>
<path d="M32.9 14.9H23.0999V10.7H35.2C30.6 1.79999 19.6 -1.60001 10.7 2.99999C1.79997 7.59999 -1.60005 18.6 2.99995 27.5C7.59995 36.4 18.6 39.8 27.5 35.2C33.5 32.1 37.2 25.9 37.2 19.1C37.2 16.8 35.3 14.9 32.9 14.9C32.9 15 32.9 15 32.9 14.9ZM27.5999 28.4H16.5C12.4 28.5 9.09995 25.3 8.99995 21.2V10.7H13.5V21.4C13.6 23 14.9999 24.2 16.5999 24.1H23.2V17.4H27.7V28.4H27.5999Z" fill="#E6540F"/>
</svg>
